<?xml version="1.0" standalone="no"?>
<!DOCTYPE svg PUBLIC "-//W3C//DTD SVG 20010904//EN"
 "http://www.w3.org/TR/2001/REC-SVG-20010904/DTD/svg10.dtd">
<svg version="1.0" xmlns="http://www.w3.org/2000/svg"
 width="720.000000pt" height="723.000000pt" viewBox="0 0 720.000000 723.000000"
 preserveAspectRatio="xMidYMid meet">
<metadata>
Created by potrace 1.15, written by Peter Selinger 2001-2017
</metadata>
<g transform="translate(0.000000,723.000000) scale(0.100000,-0.100000)"
fill="#000000" stroke="none">
<path d="M0 4578 l1 -2653 20 25 c11 14 32 40 47 59 40 51 110 116 168 157 39
27 67 38 122 46 55 8 78 17 103 39 31 28 50 38 169 93 30 14 98 53 150 86 52
33 178 101 280 151 102 50 196 97 210 105 14 8 63 35 110 59 103 55 127 75
164 140 16 28 46 73 67 100 82 110 111 154 160 248 33 63 57 97 67 97 10 0 28
-21 43 -48 43 -77 147 -197 314 -362 237 -233 363 -387 386 -472 15 -59 -13
-214 -45 -244 -13 -11 -26 -32 -29 -46 -4 -15 -14 -34 -23 -42 -8 -9 -12 -21
-9 -26 4 -6 2 -16 -3 -23 -5 -7 -12 -24 -14 -39 -4 -23 -2 -28 14 -28 11 0 18
-5 16 -12 -6 -17 -64 -17 -61 -1 2 7 -6 17 -17 23 -16 8 -20 8 -20 -4 0 -20
-28 -28 -53 -14 -12 6 -31 12 -42 13 -68 5 -146 18 -151 26 -3 5 -15 9 -28 9
-27 0 -62 31 -71 62 -11 39 -43 100 -90 173 -25 39 -58 92 -73 119 -31 55
-140 207 -156 218 -6 4 -12 6 -13 4 -7 -6 15 -51 34 -71 27 -29 113 -191 113
-214 0 -11 5 -21 10 -23 6 -2 12 -13 13 -26 0 -12 5 -22 10 -22 5 0 7 -15 4
-33 -4 -27 1 -40 29 -72 19 -22 46 -63 59 -92 14 -28 30 -55 35 -58 18 -11 11
-47 -11 -52 -16 -4 -19 -12 -17 -37 2 -19 9 -31 18 -31 8 0 21 -4 28 -9 9 -5
20 -3 29 7 13 12 21 13 42 4 14 -6 74 -10 133 -10 86 0 105 -2 101 -13 -9 -23
15 -16 28 8 7 13 17 26 23 30 7 5 4 8 -8 8 -15 0 -16 2 -6 15 7 9 16 12 19 8
3 -4 28 -8 55 -8 48 0 50 -1 59 -34 9 -35 35 -63 49 -55 5 3 8 1 8 -5 0 -5
-15 -22 -34 -36 -26 -20 -32 -31 -28 -50 6 -33 41 -33 65 -2 14 19 27 24 62
25 51 0 59 -13 18 -29 -67 -26 -112 -54 -122 -76 -6 -12 -23 -26 -38 -29 -15
-4 -38 -18 -51 -32 -21 -22 -26 -23 -48 -12 -26 14 -30 25 -14 35 20 12 10 25
-18 23 -38 -3 -54 9 -46 34 5 17 3 20 -11 15 -26 -10 -54 9 -48 33 5 18 2 19
-26 14 -19 -4 -37 -2 -46 6 -23 19 -42 -2 -21 -23 14 -13 14 -16 0 -21 -8 -3
-17 1 -20 9 -4 8 -12 15 -20 15 -7 0 -18 9 -25 21 -8 15 -14 18 -22 10 -17
-17 -27 -13 -27 10 0 12 8 28 18 35 16 12 15 13 -9 22 -15 6 -29 18 -32 26 -4
11 -19 16 -42 16 -45 0 -58 -25 -27 -51 12 -9 22 -20 22 -24 0 -3 11 -22 25
-42 13 -20 22 -40 19 -45 -4 -5 3 -12 14 -15 11 -3 26 -17 32 -33 6 -15 23
-33 37 -41 14 -7 29 -24 34 -37 5 -13 13 -21 18 -18 5 3 16 -10 25 -29 9 -19
26 -41 39 -50 l21 -15 -21 0 c-16 0 -20 -5 -16 -20 3 -11 12 -20 19 -20 8 0
14 -4 14 -9 0 -5 8 -18 18 -27 16 -17 16 -18 0 -11 -12 4 -18 2 -18 -8 0 -8 8
-16 18 -17 9 0 29 -2 44 -3 34 -3 54 -19 62 -50 4 -14 13 -25 21 -25 8 0 15
-3 15 -7 0 -5 12 -21 26 -38 14 -16 33 -42 42 -58 9 -15 20 -27 24 -27 4 0 21
-12 37 -28 65 -59 96 -75 121 -62 22 12 27 24 7 17 -15 -5 -47 10 -47 23 0 6
9 10 19 10 27 0 34 15 15 31 -14 11 -18 10 -29 -5 -19 -25 -55 -12 -55 19 0
15 -11 33 -30 46 -16 12 -27 26 -24 31 3 5 -2 15 -11 22 -17 12 -17 13 1 21
16 7 13 9 -15 14 -27 5 -37 12 -44 36 -15 46 -41 75 -58 64 -22 -14 -26 -11
-32 19 -3 16 -16 33 -29 39 -13 6 -24 20 -25 32 -2 27 -32 67 -60 80 -13 6
-23 17 -23 25 0 7 -7 19 -15 26 -16 13 -21 50 -7 50 4 0 57 -44 118 -97 135
-120 187 -163 197 -163 4 0 7 -6 7 -12 0 -7 21 -26 48 -43 55 -35 83 -65 77
-82 -2 -7 3 -13 11 -13 29 0 86 -33 96 -55 6 -13 21 -28 33 -35 13 -7 21 -18
18 -26 -3 -8 0 -14 7 -14 18 0 175 -163 216 -226 21 -31 43 -58 51 -61 7 -3
13 -11 13 -18 0 -7 9 -24 21 -39 11 -15 19 -33 16 -40 -3 -8 1 -13 11 -12 12
1 16 -6 15 -22 -2 -15 3 -22 14 -22 14 0 12 -4 -7 -17 -15 -10 -39 -16 -64
-14 -24 1 -49 -4 -61 -12 -17 -13 -18 -17 -5 -32 13 -15 12 -19 -8 -36 -37
-29 -57 -14 -52 38 1 12 -9 35 -21 52 -24 33 -71 40 -101 14 -10 -9 -25 -12
-37 -8 -16 5 -18 10 -10 23 9 14 6 26 -12 54 -30 46 -37 47 -35 5 1 -32 1 -32
-51 -35 -48 -3 -53 -1 -53 17 0 14 7 21 19 21 10 0 24 6 30 14 17 20 -1 28
-52 24 l-42 -3 2 37 c1 40 -13 52 -53 42 -31 -8 -31 -22 1 -30 30 -7 33 -30 5
-37 -25 -7 -27 -52 -2 -66 15 -9 15 -12 2 -21 -21 -14 -27 -13 -50 10 -12 12
-17 26 -13 37 6 16 5 16 -10 5 -14 -12 -15 -16 -2 -29 8 -8 15 -24 16 -36 0
-12 2 -41 4 -65 3 -38 1 -42 -20 -42 -22 0 -23 3 -19 62 4 52 1 64 -16 80 -11
11 -18 23 -15 29 4 5 -5 14 -19 21 -26 11 -36 48 -13 48 6 1 0 8 -15 16 -35
18 -36 34 -2 34 15 0 23 4 18 11 -3 6 -15 9 -25 6 -18 -5 -44 15 -33 25 3 4
-1 19 -8 35 -19 37 -12 63 16 63 12 0 27 5 34 12 9 9 16 7 31 -6 22 -20 33
-10 24 22 -6 26 -46 29 -106 8 -27 -10 -39 -11 -45 -2 -39 60 -42 96 -9 96 36
0 67 27 67 59 0 46 -27 101 -50 101 -11 0 -20 -4 -20 -10 0 -5 -16 -10 -35
-10 -19 0 -35 5 -35 10 0 6 5 10 10 10 17 0 11 57 -6 64 -13 5 -15 14 -10 41
6 28 4 35 -9 35 -23 0 -29 1 -47 11 -33 18 -43 2 -41 -68 1 -36 5 -69 10 -72
4 -3 8 -21 8 -40 -1 -18 5 -36 12 -38 7 -3 13 -14 13 -24 0 -10 4 -19 9 -19
10 0 45 -85 61 -150 7 -25 16 -50 22 -57 7 -9 2 -14 -17 -19 -27 -7 -54 15
-55 44 0 7 -5 10 -10 7 -8 -5 -8 -11 0 -20 8 -9 5 -14 -10 -18 -14 -4 -20 0
-21 11 -3 37 -5 42 -24 56 -11 9 -31 16 -45 17 l-25 1 24 7 c17 4 25 15 27 35
2 25 0 28 -20 24 -31 -6 -67 22 -80 62 -6 19 -17 36 -25 38 -8 3 -11 0 -7 -7
5 -7 1 -9 -8 -5 -19 7 -21 35 -3 53 10 10 7 11 -14 6 -26 -6 -59 14 -59 36 0
6 -15 16 -33 24 -18 7 -52 32 -74 53 -23 22 -50 43 -62 47 -11 3 -35 23 -53
44 -18 21 -43 41 -55 45 -14 4 -23 15 -23 27 0 14 -7 19 -25 19 -35 0 -95 31
-95 49 0 12 -2 13 -12 2 -10 -11 -10 -14 0 -18 6 -3 12 -13 12 -24 0 -10 9
-24 20 -31 21 -13 27 -38 10 -38 -5 0 -10 7 -10 16 0 10 -6 14 -14 11 -18 -7
-112 17 -132 33 -8 7 -14 21 -14 31 0 24 -44 43 -79 34 -40 -10 -111 16 -127
48 -12 22 -18 25 -32 18 -11 -6 -24 -6 -35 0 -26 15 -20 29 13 29 18 0 30 5
30 13 0 19 -20 36 -36 30 -10 -4 -12 0 -8 11 4 11 1 16 -10 16 -9 0 -16 -5
-16 -11 0 -6 -9 -8 -23 -4 -17 6 -19 5 -10 -5 6 -7 9 -19 6 -26 -4 -11 -11 -8
-27 11 -19 21 -27 24 -47 17 -33 -13 -99 13 -99 39 0 10 -4 19 -10 19 -5 0
-10 -7 -10 -15 0 -9 -9 -15 -24 -15 -13 0 -33 -3 -43 -6 -15 -5 -15 -4 -3 5
11 8 1 11 -42 11 -31 0 -60 5 -64 11 -4 8 -26 9 -65 5 -49 -6 -60 -4 -65 8 -7
18 -34 22 -34 5 0 -6 -9 -9 -20 -6 -11 3 -20 2 -20 -2 0 -4 -18 -12 -40 -18
-39 -10 -40 -10 -41 16 0 16 -3 20 -6 11 -4 -8 -13 -20 -21 -26 -11 -8 -12
-13 -4 -18 21 -13 13 -24 -22 -28 -19 -2 -32 0 -30 4 7 11 -8 10 -26 -2 -10
-6 -21 -3 -36 11 -14 13 -24 17 -29 10 -3 -6 -17 -8 -31 -5 -21 5 -24 3 -24
-19 0 -14 -5 -29 -10 -32 -6 -3 -10 3 -10 13 0 23 -19 33 -49 25 -19 -5 -21
-12 -21 -99 0 -52 2 -94 5 -94 3 0 27 14 53 30 27 17 53 30 59 30 5 0 14 5 21
12 13 13 80 38 104 38 9 0 23 9 31 20 17 24 50 17 43 -9 -8 -24 8 -43 28 -35
12 5 14 9 6 14 -16 10 55 23 82 14 11 -3 31 -1 44 6 26 14 59 6 48 -11 -5 -9
2 -10 24 -6 19 4 32 2 32 -3 0 -18 53 -31 134 -33 83 -2 82 -1 105 -59 7 -18
18 -28 31 -28 12 0 20 -7 20 -17 0 -15 2 -15 9 -4 5 8 16 11 25 8 12 -5 16 0
16 21 l1 27 20 -28 c11 -15 24 -25 29 -22 4 3 13 -2 20 -10 9 -11 16 -12 25
-5 10 8 18 5 33 -10 12 -13 22 -17 26 -11 4 6 16 5 34 -5 15 -7 36 -14 48 -14
11 0 31 -11 43 -24 13 -13 38 -27 57 -30 19 -4 34 -12 34 -19 0 -7 40 -24 88
-39 61 -19 98 -37 124 -61 27 -24 51 -36 83 -40 27 -4 45 -3 45 3 0 6 5 10 10
10 6 0 10 -6 10 -13 0 -7 11 -24 25 -39 14 -15 25 -34 25 -41 0 -8 9 -17 20
-20 11 -3 20 -10 20 -16 0 -15 -62 -30 -82 -20 -9 5 -29 9 -45 9 -37 1 -134
35 -148 52 -18 24 -68 40 -151 48 -49 5 -97 17 -120 29 -36 20 -40 20 -52 4
-11 -16 -13 -16 -26 2 -11 15 -17 17 -28 8 -9 -8 -26 -9 -55 -3 -22 5 -112 13
-199 16 -241 10 -266 10 -304 1 -23 -6 -35 -6 -38 2 -2 6 -10 11 -18 11 -8 0
-17 7 -20 15 -9 22 -24 18 -24 -5 0 -11 -7 -23 -15 -26 -8 -4 -12 -11 -8 -17
3 -5 2 -7 -3 -4 -6 3 -16 2 -24 -3 -17 -11 -50 5 -50 24 0 8 7 19 15 26 18 15
13 23 -15 25 -17 1 -18 -4 -13 -47 8 -69 -10 -61 -47 19 -26 56 -29 71 -20 88
9 16 18 21 36 17 16 -3 24 0 24 9 0 11 2 11 9 1 6 -10 10 -10 21 2 10 13 9 17
-4 22 -10 4 -14 13 -11 23 3 9 -3 26 -12 38 l-17 21 -13 -25 c-7 -14 -13 -32
-13 -40 0 -10 -6 -13 -17 -9 -17 7 -93 -22 -93 -35 0 -3 10 -11 23 -17 l22
-11 -22 0 c-12 -1 -23 -6 -25 -12 -2 -7 -15 -1 -32 14 -24 22 -26 28 -14 46
11 19 10 24 -14 46 -33 30 -36 31 -70 0 -23 -19 -28 -33 -28 -69 0 -38 3 -45
25 -53 l25 -8 -25 -37 c-24 -36 -25 -42 -25 -206 0 -142 2 -171 15 -176 19 -7
19 -35 0 -42 -12 -5 -15 -25 -15 -95 0 -49 2 -89 5 -89 3 0 15 9 27 20 23 21
48 27 48 11 0 -5 -18 -18 -40 -28 l-39 -18 -1 -367 0 -368 561 0 c371 0 558 3
554 10 -3 6 -15 10 -25 10 -20 0 -36 17 -25 28 3 3 10 0 16 -8 8 -13 10 -13
18 -1 8 12 14 12 43 1 18 -8 36 -19 40 -24 5 -7 133 -12 385 -13 338 -2 372 0
324 12 -30 8 -64 18 -75 23 -38 18 -237 60 -391 83 -33 5 -78 12 -100 15 -22
3 -49 6 -60 5 -54 -3 -111 1 -119 9 -5 5 -18 4 -30 -2 -21 -12 -160 -13 -226
-2 -19 3 -57 7 -84 8 -35 2 -52 8 -62 22 -26 36 -56 64 -69 64 -31 0 -65 20
-59 35 8 20 63 20 71 -1 3 -8 12 -13 19 -10 8 3 14 1 14 -4 0 -6 6 -10 13 -10
6 0 23 -9 37 -20 17 -13 28 -16 37 -9 8 7 19 7 32 -1 17 -9 21 -8 21 5 0 17
16 21 22 5 5 -15 82 -40 88 -30 9 14 73 15 97 2 21 -12 57 -12 68 0 3 3 23 1
43 -4 20 -5 91 -15 157 -23 111 -12 185 -24 275 -45 19 -4 69 -15 110 -25 96
-21 163 -40 273 -76 l87 -29 1221 0 1220 0 -5 42 c-30 224 -24 444 9 358 7
-19 25 -66 39 -103 14 -37 26 -76 26 -87 0 -17 17 -37 24 -29 15 17 14 49 -1
64 -20 20 -19 71 2 91 7 8 15 19 18 26 4 10 8 10 20 -2 39 -39 66 -250 32
-250 -21 0 -19 -30 3 -46 14 -11 15 -16 5 -33 -7 -12 -13 -23 -13 -26 0 -3 50
-5 110 -5 91 0 110 3 110 15 0 8 -4 16 -10 16 -5 1 -15 2 -20 3 -6 0 -15 8
-20 16 -5 8 -12 11 -16 7 -13 -13 -34 15 -34 44 0 16 -4 29 -10 29 -5 0 -10 9
-10 20 0 24 17 27 22 3 3 -15 6 -14 26 7 19 21 21 26 8 28 -22 5 -20 45 4 67
11 10 20 24 20 31 0 7 10 14 23 16 19 3 22 9 23 53 2 84 26 127 40 70 3 -14
10 -23 14 -20 4 2 5 -7 2 -22 -4 -22 -2 -25 12 -20 10 4 20 7 22 7 3 0 2 4 -1
10 -8 13 5 110 15 110 4 0 10 -10 14 -22 9 -34 26 -2 19 34 -3 17 -1 28 6 28
6 0 11 9 11 20 0 24 49 48 60 30 4 -6 11 -10 16 -9 31 6 55 -29 74 -106 l7
-30 16 39 c14 32 20 37 40 32 18 -4 33 2 57 24 19 17 39 30 46 30 7 0 21 11
31 24 10 13 31 27 47 30 25 6 28 5 23 -13 -3 -14 3 -25 20 -36 32 -22 46 -60
30 -85 -6 -11 -17 -20 -24 -20 -19 0 -25 -18 -13 -39 8 -16 7 -22 -6 -29 -9
-5 -16 -13 -16 -18 -1 -22 -11 -34 -29 -34 -25 0 -24 -20 1 -27 11 -3 20 -8
20 -12 0 -13 -40 -90 -50 -96 -5 -3 -10 -19 -10 -35 0 -23 -7 -33 -30 -45 -36
-18 -36 -22 -9 -51 18 -19 19 -23 5 -37 -34 -33 -19 -37 143 -37 144 0 160 2
164 18 4 16 5 16 6 0 1 -22 41 -25 41 -3 0 8 -4 15 -10 15 -5 0 -10 5 -10 10
0 6 -8 20 -19 31 -11 12 -17 29 -14 40 8 28 26 9 54 -56 l24 -55 87 0 c60 0
88 4 91 13 4 10 6 10 6 0 1 -7 10 -13 22 -13 17 0 20 4 15 24 -3 14 -2 27 3
30 14 9 43 -24 37 -40 -4 -11 12 -14 79 -14 77 0 85 2 85 19 0 29 11 51 24 51
7 0 18 12 24 26 8 16 30 33 62 46 28 11 50 27 50 34 0 8 8 14 19 14 10 0 24 7
31 15 9 11 23 14 45 9 28 -5 33 -2 44 24 24 57 85 48 74 -11 -10 -54 -22 -70
-50 -64 -19 3 -27 0 -30 -13 -3 -10 -20 -26 -39 -35 -36 -17 -48 -30 -40 -44
11 -17 74 6 105 38 26 27 34 30 51 21 14 -8 20 -8 20 0 0 8 6 8 20 0 35 -18
19 -70 -26 -84 -12 -3 -29 -15 -39 -26 -17 -19 -12 -19 334 -20 l351 0 0 3615
0 3615 -3600 0 -3600 0 0 -2652z m3723 2261 c194 -40 324 -97 483 -212 48 -34
105 -75 128 -91 39 -28 133 -121 179 -179 12 -15 36 -43 53 -62 17 -19 68
-108 113 -197 70 -138 82 -168 77 -198 -4 -23 -3 -28 3 -15 8 19 8 19 19 -1 9
-16 8 -26 -3 -40 -8 -11 -15 -27 -15 -36 0 -10 -9 -23 -20 -30 -13 -8 -20 -24
-20 -42 0 -16 -8 -38 -17 -48 -15 -17 -15 -20 9 -46 30 -31 47 -102 51 -207 2
-79 -7 -88 -65 -62 -34 16 -163 28 -348 33 -104 3 -209 -11 -221 -28 -13 -19
-85 -21 -124 -2 -20 9 -49 18 -64 19 -14 2 -59 10 -100 20 -51 12 -95 15 -145
12 -39 -3 -109 -8 -156 -11 -142 -8 -289 -25 -310 -36 -10 -5 -35 -10 -54 -10
-20 0 -62 -8 -93 -19 -169 -54 -166 -54 -188 -29 -12 14 -32 23 -50 24 -17 0
-45 4 -62 8 -32 7 -33 6 -33 -23 0 -30 -1 -31 -45 -31 -41 0 -45 -2 -41 -22 3
-21 -3 -24 -58 -35 -87 -17 -201 -16 -235 2 -36 18 -46 42 -22 50 11 3 21 19
25 37 3 17 12 39 20 47 7 9 17 34 21 56 23 128 23 128 5 167 -9 21 -19 36 -22
33 -3 -3 -3 5 -1 17 2 13 -1 36 -6 52 -9 22 -14 26 -25 17 -10 -8 -16 -8 -26
4 -9 11 -10 39 -3 117 6 64 6 108 1 115 -12 15 -1 69 18 101 10 15 12 28 5 40
-6 12 -4 28 6 52 16 36 18 103 4 127 -6 11 -13 8 -35 -12 -15 -14 -36 -25 -47
-25 -16 0 -17 -3 -7 -19 9 -15 9 -25 0 -45 -11 -25 -45 -36 -56 -18 -3 5 -19
7 -36 4 -25 -4 -30 -1 -30 16 0 12 4 23 9 26 5 4 12 24 16 46 5 31 23 58 73
113 59 65 183 167 202 167 4 0 37 17 71 38 66 40 75 43 319 135 434 163 608
190 873 136z m-1578 -1329 c3 -5 -1 -10 -9 -10 -9 0 -16 5 -16 10 0 6 4 10 9
10 6 0 13 -4 16 -10z m-25 -135 c0 -7 7 -18 16 -23 14 -8 14 -10 0 -21 -9 -8
-16 -18 -16 -23 0 -5 -11 -26 -25 -46 -14 -20 -25 -44 -25 -54 0 -10 -14 -25
-30 -33 -26 -13 -29 -19 -20 -35 6 -11 17 -20 25 -20 8 0 19 -9 25 -20 6 -11
15 -20 21 -20 6 0 23 -12 39 -27 28 -26 28 -27 12 -60 -12 -26 -20 -32 -36
-27 -11 4 -26 13 -33 20 -7 7 -23 16 -36 20 -12 4 -40 21 -62 39 -65 53 -108
75 -146 75 -52 0 -81 -39 -97 -133 -9 -51 -28 -47 -24 6 3 58 48 158 80 182
31 23 110 27 179 8 41 -10 42 -10 32 9 -15 28 -3 68 20 68 12 0 24 12 32 33
31 76 69 121 69 82z m70 -25 c0 -5 -7 -10 -16 -10 -8 0 -12 5 -9 10 3 6 10 10
16 10 5 0 9 -4 9 -10z m1847 -253 c-3 -7 8 -24 24 -37 45 -35 43 -29 110 -287
10 -40 30 -98 44 -128 14 -31 25 -62 25 -69 0 -7 14 -32 30 -54 28 -39 40 -92
21 -92 -5 0 -14 13 -21 29 -17 43 -36 45 -96 10 -36 -20 -61 -28 -72 -23 -16
7 -77 17 -174 30 -47 6 -124 -16 -186 -54 -18 -12 -25 -12 -37 -2 -35 29 -3
119 64 183 25 23 40 48 44 69 2 18 22 76 44 128 22 52 47 124 56 159 18 71 40
111 62 111 8 0 15 5 15 10 0 6 -4 10 -10 10 -5 0 -10 5 -10 10 0 6 16 10 36
10 26 0 35 -4 31 -13z m-1356 -7 c5 0 9 -6 9 -13 0 -6 15 -19 33 -26 34 -16
139 -93 195 -145 19 -17 54 -71 79 -121 57 -115 98 -158 183 -190 58 -22 88
-26 234 -32 92 -3 169 -10 172 -15 3 -4 0 -8 -5 -8 -6 0 -11 -6 -11 -12 -1
-37 -115 -118 -165 -118 -13 0 -30 -7 -39 -15 -8 -8 -23 -15 -33 -15 -11 0
-28 -7 -39 -15 -10 -8 -29 -15 -41 -15 -15 0 -21 -5 -17 -14 4 -9 -6 -16 -31
-20 -19 -4 -41 -16 -48 -26 -19 -32 -73 -18 -60 16 3 7 -5 25 -16 40 -26 33
-26 60 -1 115 10 24 15 45 10 47 -12 5 -90 -46 -97 -63 -6 -18 -53 -20 -53 -2
0 6 -14 32 -30 57 -16 25 -36 54 -42 65 -17 25 -49 55 -60 55 -19 0 -57 57
-63 93 -4 22 -16 46 -26 55 -10 9 -22 32 -25 52 -4 19 -13 44 -20 55 -7 11
-16 44 -20 72 -3 29 -13 58 -20 64 -8 6 -14 26 -14 44 0 33 13 47 38 39 8 -2
18 -4 23 -4z m-451 -55 c0 -8 -7 -15 -15 -15 -16 0 -20 12 -8 23 11 12 23 8
23 -8z m73 -35 c-8 -77 -23 -85 -43 -24 -10 30 -10 38 1 45 24 15 44 5 42 -21z
m135 8 c20 -20 12 -128 -9 -128 -5 0 -19 20 -31 45 -18 37 -20 48 -10 70 13
27 31 32 50 13z m2512 -3 c10 -12 10 -18 0 -30 -16 -19 -30 -10 -30 21 0 27
12 31 30 9z m-1140 -82 c-12 -36 -43 -85 -82 -127 -10 -11 -21 -29 -24 -40 -3
-12 -22 -36 -42 -53 -38 -35 -40 -56 -2 -23 13 11 29 20 35 20 7 0 15 7 19 15
6 16 26 21 26 7 0 -5 -13 -21 -28 -38 -16 -16 -31 -36 -34 -45 -15 -39 -279
-62 -400 -34 -93 21 -127 36 -173 76 -42 37 -65 82 -65 129 0 34 1 34 50 19
19 -5 49 -12 65 -13 17 -2 51 -7 78 -11 30 -5 52 -3 60 4 11 8 17 5 27 -14 28
-53 82 -47 288 33 71 27 105 48 149 88 32 29 59 51 61 49 2 -2 -2 -21 -8 -42z
m-1510 -23 c0 -5 -2 -10 -4 -10 -3 0 -8 5 -11 10 -3 6 -1 10 4 10 6 0 11 -4
11 -10z m-560 -67 c8 -27 24 -61 37 -76 13 -16 23 -37 23 -47 0 -24 10 -50 19
-50 4 0 8 19 9 43 3 64 12 95 27 101 17 6 35 -22 35 -53 0 -57 94 -221 126
-221 8 0 25 7 39 16 35 23 87 15 102 -16 7 -13 20 -30 29 -37 14 -10 15 -23 9
-87 -6 -68 -5 -75 13 -80 28 -9 42 -47 32 -90 -4 -20 -13 -42 -19 -49 -17 -21
-78 -19 -118 2 -21 11 -50 23 -65 26 -18 3 -49 32 -96 88 -64 77 -102 147
-133 242 -7 22 -32 93 -56 157 -39 107 -56 197 -34 184 4 -3 14 -27 21 -53z
m840 -114 c0 -5 14 -15 30 -20 17 -6 30 -15 30 -20 0 -6 6 -9 13 -8 32 4 67
-2 67 -12 0 -6 7 -17 16 -26 21 -21 3 -39 -24 -24 -16 9 -24 7 -36 -5 -20 -19
-20 -29 0 -48 18 -19 61 -21 66 -4 7 19 38 1 38 -22 0 -13 11 -24 35 -34 19
-8 35 -21 35 -29 0 -8 15 -32 34 -53 31 -34 34 -44 33 -92 -1 -42 3 -57 17
-67 10 -8 15 -19 11 -25 -7 -11 10 -29 28 -30 4 0 12 11 16 24 8 19 16 23 48
22 l38 -1 3 -59 c3 -56 1 -61 -31 -95 -36 -38 -56 -81 -38 -81 22 0 10 -18
-15 -24 -31 -8 -45 1 -24 15 13 8 11 13 -9 29 -13 11 -36 20 -52 20 -16 0 -29
5 -29 10 0 6 -15 8 -37 5 -31 -4 -43 -1 -65 19 -16 14 -28 30 -28 36 0 6 -11
15 -25 20 -19 7 -25 17 -25 40 0 16 -5 30 -11 30 -6 0 -9 9 -6 20 7 26 -28 60
-61 60 -16 0 -26 7 -29 20 -3 12 -20 27 -37 34 -25 10 -34 22 -44 60 -8 32
-19 50 -32 53 -26 7 -32 26 -35 111 -3 63 -1 75 16 85 10 6 19 18 19 25 0 15
58 52 83 52 9 0 17 -5 17 -11z m-336 -134 c-8 -110 -11 -114 -39 -61 -36 68
-30 151 13 184 15 11 18 9 25 -15 4 -15 5 -64 1 -108z m2062 106 c42 -26 143
-60 179 -60 82 -2 99 0 113 11 11 10 18 8 31 -8 13 -16 25 -20 51 -17 42 5
101 34 94 45 -3 4 2 8 10 8 9 0 16 7 16 15 0 19 14 19 31 -1 7 -8 20 -13 29
-11 15 4 16 1 6 -25 -6 -16 -20 -31 -31 -33 -11 -2 -50 -11 -87 -20 -36 -8
-115 -16 -175 -17 -160 -2 -239 26 -293 102 -25 35 -18 38 26 11z m314 -153
c69 -1 137 2 153 6 22 7 27 5 27 -8 0 -10 -9 -16 -25 -16 -31 0 -33 -22 -2
-51 15 -15 18 -23 10 -26 -10 -3 -10 -10 -2 -25 11 -20 6 -33 -14 -33 -7 0
-13 -13 -15 -28 -5 -46 -29 -44 -72 4 -21 24 -42 40 -46 36 -5 -4 -3 -16 4
-25 19 -27 34 -65 36 -92 1 -14 4 -30 8 -36 9 -13 -1 -54 -13 -54 -5 0 -7 11
-3 24 6 25 -2 35 -38 41 -12 3 -24 9 -27 14 -3 4 -20 11 -36 15 -22 5 -34 15
-42 36 -6 17 -18 30 -27 30 -9 0 -16 4 -16 9 0 5 -17 11 -37 15 -35 5 -40 11
-65 65 -16 33 -28 63 -28 66 0 4 17 5 38 2 20 -4 44 -2 52 3 12 8 12 10 -4 10
-20 0 -20 0 0 14 10 8 28 13 39 10 11 -2 76 -5 145 -6z m-912 -254 c14 -39 14
-44 -4 -75 -12 -21 -29 -35 -44 -38 -14 -1 -36 -14 -49 -28 -18 -17 -32 -23
-48 -18 -13 3 -29 2 -36 -2 -7 -4 -19 -8 -27 -9 -8 -1 -23 -2 -32 -3 -9 0 -20
-10 -23 -21 -3 -11 -17 -23 -31 -26 -13 -3 -24 -11 -24 -16 0 -5 -20 -35 -45
-67 -25 -31 -45 -64 -45 -73 0 -22 -37 -108 -47 -108 -4 0 -18 -3 -30 -6 -19
-5 -23 -2 -23 15 0 14 -6 21 -19 21 -25 0 -31 10 -32 57 -1 83 39 203 68 203
6 0 14 9 18 19 3 11 15 23 26 26 16 5 18 10 8 21 -9 11 -7 14 14 14 14 0 27 4
29 10 2 5 37 16 79 24 72 14 175 58 244 106 41 28 56 22 73 -26z m-628 -4 c0
-5 -8 -10 -17 -10 -15 0 -16 2 -3 10 19 12 20 12 20 0z m1284 -32 c11 -10 27
-20 37 -23 9 -3 20 -12 23 -20 3 -8 13 -15 22 -15 50 0 164 -104 164 -149 0
-30 -12 -26 -74 24 -31 25 -62 45 -70 43 -8 -2 -22 6 -30 17 -13 17 -18 18
-35 8 -23 -15 -29 -8 -68 87 -34 81 -31 83 31 28z m440 -98 c18 -40 15 -77 -4
-65 -5 3 -10 17 -10 29 0 13 -7 29 -15 36 -18 15 -20 40 -2 40 7 0 21 -18 31
-40z m-1624 -45 c0 -23 -62 -95 -83 -95 -8 0 -17 -7 -21 -15 -3 -8 -13 -15
-22 -15 -8 0 -14 3 -12 8 22 44 36 62 71 89 38 29 67 41 67 28z m800 -210 c28
-25 25 -59 -5 -73 -18 -8 -45 -9 -92 -2 -44 6 -73 6 -86 -1 -13 -8 -27 -7 -47
1 -16 7 -37 9 -48 6 -11 -4 -24 0 -32 8 -10 13 -5 18 32 34 95 43 133 52 196
48 42 -3 69 -10 82 -21z m-325 -104 c3 -10 14 -26 25 -36 36 -32 18 -85 -23
-69 -8 3 -20 -2 -27 -11 -13 -16 -60 -21 -60 -6 0 5 -12 24 -26 41 -15 17 -25
33 -23 35 2 2 21 17 43 34 44 35 82 40 91 12z m232 -268 c4 -9 -1 -19 -11 -25
-9 -5 -21 -21 -26 -34 -12 -30 -46 -32 -53 -2 -4 12 -2 27 4 34 6 7 5 15 -5
23 -11 9 -15 7 -19 -10 -6 -21 -27 -18 -27 5 0 14 65 40 80 31 5 -3 10 -1 10
5 0 15 39 -7 47 -27z m-1547 -53 c0 -11 -4 -20 -10 -20 -5 0 -10 9 -10 20 0
11 5 20 10 20 6 0 10 -9 10 -20z m-14 -205 c25 -73 15 -83 -38 -36 -30 26 -31
31 -20 56 17 37 41 28 58 -20z m321 -1008 c-6 -19 -24 -18 -29 1 -4 15 -1 18
14 14 10 -2 17 -9 15 -15z m-7 -113 c0 -8 -6 -11 -15 -8 -8 4 -15 12 -15 20 0
8 6 11 15 8 8 -4 15 -12 15 -20z m130 -5 c0 -5 -7 -9 -15 -9 -15 0 -20 12 -9
23 8 8 24 -1 24 -14z m-185 -29 c-4 -14 -2 -20 9 -20 8 0 31 9 51 20 40 22 61
25 70 9 11 -17 -26 -49 -55 -49 -15 0 -33 -6 -39 -14 -7 -8 -27 -19 -44 -25
-29 -10 -30 -9 -13 4 16 12 17 17 5 44 -8 17 -18 31 -22 31 -5 0 -5 5 -2 10 3
6 15 10 26 10 16 0 19 -5 14 -20z m253 -41 c2 -12 -4 -15 -28 -11 -16 2 -30 8
-30 11 0 26 53 26 58 0z m-75 -26 c15 -9 6 -33 -12 -33 -11 0 -26 -2 -34 -5
-10 -4 -14 2 -15 25 -1 28 1 30 26 24 15 -4 30 -9 35 -11z m127 -27 c0 -9 -7
-12 -20 -9 -11 3 -17 9 -14 14 8 14 34 10 34 -5z m-64 -16 c8 0 14 -10 14 -25
0 -14 4 -25 9 -25 5 0 11 -9 14 -20 3 -11 13 -20 22 -20 9 0 19 9 22 20 6 23
31 26 58 6 18 -13 17 -14 -12 -20 -52 -12 -50 -44 3 -60 13 -4 24 -18 27 -34
6 -31 0 -43 -12 -23 -6 9 -11 10 -15 2 -12 -18 -34 -12 -38 10 -2 12 -13 29
-26 37 -21 14 -23 14 -29 -6 -6 -23 -14 -26 -50 -16 -28 8 -19 34 12 34 32 0
40 17 15 30 -12 6 -20 21 -20 36 0 19 -4 25 -15 20 -11 -4 -19 3 -25 20 -12
30 -4 48 17 40 8 -3 21 -6 29 -6z m-126 -20 c0 -5 -9 -10 -21 -10 -11 0 -17 5
-14 10 3 6 13 10 21 10 8 0 14 -4 14 -10z m2338 -31 c2 -5 20 -9 40 -9 79 0
302 -53 337 -80 6 -4 30 -10 55 -13 49 -5 79 -16 125 -47 17 -11 37 -23 45
-26 8 -4 24 -15 35 -24 11 -10 42 -25 68 -35 37 -14 51 -26 62 -51 7 -18 25
-40 39 -49 38 -25 92 -104 117 -169 20 -51 21 -62 10 -111 -10 -46 -10 -59 3
-87 8 -18 17 -51 20 -73 2 -22 8 -51 14 -65 25 -65 28 -90 21 -149 -4 -35 -12
-68 -18 -74 -6 -6 -11 -22 -11 -35 0 -22 -3 -24 -30 -18 -35 6 -32 -6 7 -37
24 -20 30 -56 12 -74 -6 -6 -11 -28 -11 -48 0 -20 -6 -49 -14 -63 -19 -37 -18
-42 11 -42 18 0 25 -5 25 -19 0 -10 7 -24 16 -31 11 -10 14 -23 9 -51 -4 -23
-2 -45 6 -57 11 -18 10 -24 -5 -40 -11 -13 -14 -22 -7 -27 16 -9 13 -45 -4
-51 -21 -9 -19 -31 5 -44 14 -7 20 -21 20 -43 -1 -33 -29 -77 -50 -77 -7 0 -9
-8 -5 -19 7 -24 -9 -35 -41 -27 -17 5 -26 16 -31 36 -5 25 -10 30 -35 30 -25
0 -29 3 -23 18 19 45 17 57 -14 68 -28 11 -29 14 -24 55 4 24 13 50 22 57 14
11 14 14 -5 30 -17 15 -21 28 -19 80 1 39 -3 69 -11 80 -8 9 -14 28 -14 43 0
14 -5 30 -12 37 -8 8 -6 16 12 30 22 18 22 20 6 44 -9 13 -13 28 -9 31 13 14
50 6 68 -13 10 -11 24 -20 32 -20 7 0 13 -11 13 -25 0 -28 20 -33 42 -11 11
10 15 46 9 75 -1 2 -7 -2 -15 -8 -19 -16 -66 6 -66 31 0 26 -18 58 -32 58 -14
0 -66 57 -74 82 -3 10 -10 18 -15 18 -11 0 -8 72 4 81 4 3 9 17 10 30 0 13 8
29 16 35 22 17 6 42 -31 46 -28 2 -33 7 -30 26 2 15 -2 22 -12 22 -11 0 -16
10 -16 34 0 25 -6 38 -24 50 -18 11 -24 24 -23 43 2 24 -2 27 -33 29 -19 1
-45 -4 -58 -12 -28 -18 -38 -13 -45 26 -7 31 -56 70 -89 70 -15 0 -16 4 -6 25
6 14 15 25 20 25 4 0 8 11 8 25 0 29 -14 31 -59 9 -24 -12 -36 -13 -44 -5 -8
8 -1 20 28 46 35 30 37 35 18 35 -21 0 -21 1 -8 33 12 29 12 38 -1 61 -8 16
-14 43 -14 61 0 25 -5 35 -19 40 -11 3 -23 14 -26 25 -3 10 -26 30 -50 45 -25
14 -54 35 -64 47 -13 13 -27 19 -40 15 -16 -4 -21 0 -21 13 0 19 -55 44 -82
38 -19 -4 -108 25 -108 35 0 11 84 -2 88 -14z m-2453 -23 c-29 -23 -45 -25
-45 -5 0 5 9 9 19 9 11 0 23 5 26 10 3 6 12 10 18 10 7 0 -1 -11 -18 -24z
m189 8 c9 -22 8 -24 -9 -18 -8 4 -21 1 -29 -5 -7 -6 -16 -8 -19 -4 -13 12 -7
23 13 23 11 0 20 5 20 10 0 16 17 12 24 -6z m-709 -25 c-11 -17 -35 -9 -35 11
0 18 3 19 20 10 11 -6 18 -15 15 -21z m957 -33 c10 -7 15 -16 11 -19 -7 -8
-43 -10 -43 -3 0 2 -3 11 -6 20 -8 20 14 21 38 2z m-395 -12 c-15 -8 -33 -12
-40 -7 -8 5 -3 9 13 14 43 12 56 9 27 -7z m289 -102 c10 -19 -3 -27 -21 -12
-8 7 -15 27 -15 44 l0 31 15 -25 c8 -14 17 -31 21 -38z m169 19 c-14 -14 -17
-14 -25 -1 -19 29 -12 41 15 28 23 -11 24 -13 10 -27z m-315 19 c0 -5 -5 -10
-11 -10 -5 0 -7 5 -4 10 3 6 8 10 11 10 2 0 4 -4 4 -10z m275 -37 c14 -15 25
-33 25 -40 0 -6 3 -18 6 -27 10 -26 -18 -18 -47 12 -35 36 -40 47 -33 66 9 23
19 20 49 -11z m-2905 7 c0 -5 -4 -10 -10 -10 -5 0 -10 5 -10 10 0 6 5 10 10
10 6 0 10 -4 10 -10z m68 -28 c-2 -8 -13 -16 -25 -17 -27 -2 -28 3 -7 26 19
21 37 15 32 -9z m2932 8 c0 -11 -6 -20 -14 -20 -9 0 -12 7 -9 20 3 11 9 20 14
20 5 0 9 -9 9 -20z m-2140 -29 c0 -16 -14 -20 -27 -10 -19 17 -16 28 7 22 11
-3 20 -9 20 -12z m2180 -22 c0 -5 7 -9 16 -9 8 0 12 -4 9 -10 -11 -17 -32 -11
-48 14 -15 23 -15 24 3 19 11 -3 20 -9 20 -14z m-1013 -31 c-3 -8 -6 -5 -6 6
-1 11 2 17 5 13 3 -3 4 -12 1 -19z m-32 2 c3 -5 -1 -10 -10 -10 -9 0 -13 5
-10 10 3 6 8 10 10 10 2 0 7 -4 10 -10z m520 -10 c19 -1 19 -1 3 -14 -10 -7
-18 -18 -18 -25 0 -16 -30 -13 -36 4 -4 8 -14 15 -24 15 -14 0 -17 -5 -12 -22
3 -13 11 -27 19 -31 18 -11 17 -37 -2 -37 -12 0 -15 -9 -13 -38 3 -36 5 -38
37 -39 31 -1 33 0 27 28 -4 23 -2 27 12 22 18 -6 92 -82 92 -95 0 -12 -13 -9
-34 7 -26 20 -46 19 -46 -1 0 -11 -5 -14 -16 -10 -9 4 -22 1 -30 -4 -10 -9
-17 -5 -30 15 -10 15 -28 31 -41 36 -28 10 -30 29 -4 29 17 0 20 7 19 50 0 42
-3 50 -19 50 -10 0 -19 6 -19 14 0 19 70 56 95 51 11 -3 29 -5 40 -5z m355 6
c0 -3 -4 -8 -10 -11 -5 -3 -10 -1 -10 4 0 6 5 11 10 11 6 0 10 -2 10 -4z m136
-17 c4 -7 7 -21 8 -32 1 -15 11 -23 34 -29 22 -6 32 -14 32 -28 0 -20 -15 -28
-22 -11 -1 5 -12 11 -23 13 -21 3 -47 31 -58 60 -4 13 -2 15 11 11 15 -6 15
-5 3 10 -8 10 -9 17 -3 17 6 0 14 -5 18 -11z m128 -54 c3 -9 0 -15 -9 -15 -8
0 -15 7 -15 15 0 8 4 15 9 15 5 0 11 -7 15 -15z m-769 -25 c-4 -13 -2 -20 6
-20 7 0 4 -6 -6 -14 -14 -10 -25 -11 -37 -5 -23 12 -23 35 0 48 28 17 44 13
37 -9z m795 -30 c-15 -28 -13 -31 18 -24 24 7 26 6 13 -9 -7 -10 -20 -17 -27
-17 -8 0 -14 -4 -14 -10 0 -16 -37 -12 -44 5 -3 8 -12 15 -20 15 -10 0 -13 6
-10 15 4 8 15 15 25 15 10 0 19 -7 19 -15 0 -8 5 -15 11 -15 6 0 8 9 4 20 -3
11 0 26 7 34 18 19 30 9 18 -14z m2030 0 c0 -5 -4 -10 -10 -10 -5 0 -10 5 -10
10 0 6 5 10 10 10 6 0 10 -4 10 -10z m-2595 -30 c3 -5 1 -10 -4 -10 -6 0 -11
5 -11 10 0 6 2 10 4 10 3 0 8 -4 11 -10z m2502 -27 c4 -12 -44 -49 -53 -41 -2
3 0 17 6 32 10 28 39 33 47 9z m-1833 -39 c20 -43 20 -54 1 -54 -8 0 -15 -7
-15 -15 0 -19 5 -19 25 1 12 13 19 14 30 4 8 -7 15 -18 15 -25 0 -7 7 -18 15
-25 8 -7 13 -16 10 -20 -3 -4 2 -11 11 -14 9 -4 14 -13 10 -21 -3 -8 -1 -15 4
-15 6 0 10 -6 10 -14 0 -12 -7 -13 -32 -5 -41 11 -51 11 -44 0 3 -5 -2 -8 -12
-7 -27 2 -29 -50 -3 -59 29 -9 26 -25 -4 -25 -16 0 -25 6 -25 15 0 22 -27 18
-33 -5 -3 -12 -14 -20 -25 -20 -12 0 -24 -4 -27 -10 -8 -13 -35 -13 -35 -1 0
5 10 11 22 13 29 4 35 34 13 58 -9 10 -14 23 -11 29 10 16 -30 31 -66 25 l-33
-7 37 29 c39 31 50 51 21 39 -10 -3 -30 -9 -45 -12 -23 -5 -28 -2 -28 15 0 12
7 27 15 34 9 7 22 19 30 26 7 6 19 12 26 12 16 0 38 31 39 54 0 14 3 16 13 7
11 -8 17 -5 26 13 17 32 44 23 65 -20z m-184 9 c0 -13 -33 -43 -48 -43 -12 0
-10 6 8 25 23 24 40 32 40 18z m-521 -55 c10 -26 -9 -44 -35 -34 -18 7 -18 26
1 26 9 0 12 6 9 15 -4 8 -1 15 5 15 7 0 15 -10 20 -22z m-2499 -24 c0 -22 -3
-24 -22 -18 -30 9 -32 10 -25 29 4 8 16 15 27 15 15 0 20 -7 20 -26z m2860 -8
c0 -3 -4 -8 -10 -11 -5 -3 -10 -1 -10 4 0 6 5 11 10 11 6 0 10 -2 10 -4z
m-305 -36 c0 -18 -25 -24 -45 -10 -13 9 -13 11 0 20 20 14 45 8 45 -10z
m-2508 -22 c-3 -8 -6 -5 -6 6 -1 11 2 17 5 13 3 -3 4 -12 1 -19z m2563 -18 c0
-5 -5 -10 -11 -10 -5 0 -7 5 -4 10 3 6 8 10 11 10 2 0 4 -4 4 -10z m-2581 -36
c-10 -12 -14 -12 -20 -2 -6 8 -2 18 9 26 21 16 30 -2 11 -24z m2936 16 c-3 -5
-12 -10 -18 -10 -7 0 -6 4 3 10 19 12 23 12 15 0z m-845 -22 c0 -4 -9 -9 -20
-9 -11 -1 -25 -2 -32 -3 -6 -1 -13 5 -15 11 -3 8 7 12 31 11 20 -1 36 -5 36
-10z m494 -3 c-4 -8 -12 -15 -20 -15 -8 0 -14 7 -14 15 0 8 9 15 20 15 13 0
18 -5 14 -15z m404 -66 c-6 -4 -19 2 -30 13 -16 16 -17 22 -7 34 10 13 15 11
30 -13 12 -18 15 -29 7 -34z m-2385 35 c26 -4 44 -11 41 -15 -3 -5 10 -8 28
-8 18 1 25 3 16 6 -31 8 -19 23 18 23 38 0 114 -21 179 -50 39 -17 131 -55
170 -70 11 -4 38 -13 60 -19 66 -20 116 -43 188 -86 70 -41 85 -51 155 -97 84
-57 50 -61 -54 -6 -32 16 -69 29 -83 30 -43 0 -111 -14 -111 -24 0 -5 -13 6
-30 24 -21 23 -30 28 -30 16 0 -9 5 -18 12 -20 16 -6 2 -38 -17 -38 -8 0 -15
5 -15 10 0 6 -10 21 -21 33 l-21 22 7 -24 c6 -19 4 -23 -7 -18 -11 4 -14 -1
-11 -21 l4 -27 -25 30 c-14 17 -26 33 -26 38 0 4 -12 7 -26 7 -19 0 -25 4 -21
15 4 8 2 17 -3 20 -6 4 -10 1 -10 -6 0 -7 -9 -6 -25 5 -17 11 -31 14 -41 8
-19 -10 -64 -4 -64 9 0 5 -5 9 -11 9 -16 0 -41 29 -34 39 7 13 -54 46 -80 43
-11 -2 -31 -5 -45 -8 -19 -3 -22 -2 -10 6 10 6 11 10 3 10 -24 0 -13 18 15 23
15 3 33 15 40 27 16 26 15 26 -23 35 -22 5 -26 4 -15 -4 12 -8 10 -12 -10 -19
-14 -5 -31 -7 -38 -5 -7 3 -20 -1 -29 -8 -9 -8 -38 -14 -65 -14 -28 0 -52 -5
-57 -13 -4 -7 -24 -21 -43 -31 -40 -20 -68 -12 -68 18 0 21 -42 33 -74 22 -17
-7 -18 -8 -2 -14 10 -4 14 -11 11 -17 -3 -5 -2 -10 4 -10 6 0 15 -9 20 -19 9
-16 8 -18 -9 -14 -16 4 -20 1 -18 -17 2 -13 -3 -25 -9 -27 -7 -3 -13 2 -13 11
0 9 -7 16 -15 16 -8 0 -15 -8 -15 -17 0 -15 -2 -14 -15 3 -13 17 -12 20 5 33
20 13 27 41 12 41 -5 0 -14 10 -20 23 l-11 22 0 -22 c-1 -14 -7 -23 -16 -23
-21 0 -19 -33 5 -75 26 -46 26 -65 0 -37 -12 12 -25 22 -31 22 -6 0 -7 5 -4
10 3 6 -7 22 -24 36 -21 18 -31 35 -31 55 0 18 -7 32 -20 39 -18 10 -21 7 -26
-19 -5 -25 -12 -31 -47 -36 -22 -4 -49 -16 -61 -26 -11 -11 -29 -19 -40 -19
-11 0 -30 -10 -43 -22 -20 -19 -26 -20 -33 -8 -6 10 -4 20 6 31 7 8 14 20 14
26 0 6 9 9 22 5 14 -3 19 -1 14 6 -3 6 2 15 11 21 17 10 17 10 1 11 -10 0 -18
7 -18 15 0 18 41 20 58 3 9 -9 13 -7 18 8 11 28 25 34 62 28 18 -4 32 -2 32 3
0 16 52 36 90 36 19 -1 40 3 45 7 9 7 133 6 195 -2 8 -1 32 2 53 6 25 5 37 3
37 -4 0 -7 7 -5 16 4 17 18 30 19 97 10z m2301 -12 c3 -5 2 -19 -1 -32 l-6
-24 -8 22 c-5 12 -15 22 -24 22 -17 0 -20 -23 -6 -49 14 -26 -2 -46 -26 -33
-12 7 -24 7 -29 2 -5 -5 -18 1 -31 16 -12 13 -18 24 -13 24 5 0 12 -4 15 -10
8 -13 45 -13 45 -1 0 5 -5 11 -12 13 -18 6 -1 38 21 38 11 0 23 5 26 10 7 12
42 13 49 2z m2286 -32 c9 -16 8 -20 -5 -20 -13 0 -14 -4 -5 -21 7 -11 20 -29
29 -38 10 -10 21 -36 25 -57 4 -21 14 -47 21 -58 17 -23 9 -107 -12 -119 -20
-12 -16 -26 11 -38 22 -10 23 -13 10 -38 -8 -14 -14 -32 -14 -38 0 -8 -10 -11
-29 -7 -21 4 -40 0 -64 -15 -42 -26 -57 -27 -50 -2 3 10 -2 32 -10 48 -17 31
-12 76 9 94 8 6 14 24 14 40 0 16 6 38 13 49 10 17 9 22 -2 29 -10 6 -11 20
-6 50 5 33 3 46 -10 61 -16 18 -16 20 -1 26 9 4 16 17 16 34 0 26 8 33 42 39
4 0 12 -8 18 -19z m65 -13 c0 -26 -20 -25 -23 2 -3 16 1 22 10 19 7 -3 13 -12
13 -21z m-1922 -19 c-9 -15 -23 -8 -23 12 0 17 2 19 14 8 8 -7 12 -16 9 -20z
m-1798 13 c3 -5 2 -12 -3 -15 -5 -3 -9 1 -9 9 0 17 3 19 12 6z m20 -41 c3 -5
1 -10 -4 -10 -6 0 -11 5 -11 10 0 6 2 10 4 10 3 0 8 -4 11 -10z m1145 0 c0 -5
-4 -10 -10 -10 -5 0 -10 5 -10 10 0 6 5 10 10 10 6 0 10 -4 10 -10z m-2842
-18 c2 -7 -5 -12 -17 -12 -14 0 -19 5 -14 15 6 17 25 15 31 -3z m779 -6 c-3
-7 3 -26 12 -42 17 -28 18 -54 1 -54 -5 0 -11 8 -14 18 -4 10 -22 25 -41 32
l-35 14 27 23 c31 25 58 30 50 9z m2300 -13 l32 -5 -29 -25 c-35 -29 -37 -44
-10 -61 11 -7 20 -20 20 -30 0 -10 5 -23 12 -30 7 -7 8 -12 2 -12 -6 0 -30 18
-53 40 -23 22 -53 43 -66 46 -14 3 -25 12 -25 19 0 20 27 37 50 30 11 -3 20
-2 20 4 0 5 -9 13 -20 16 -11 4 -17 11 -14 17 3 5 16 7 28 3 11 -4 35 -9 53
-12z m459 -29 c11 -27 19 -34 33 -29 23 7 55 -37 46 -65 -7 -22 -14 -24 -47
-11 -20 8 -27 5 -44 -20 -10 -16 -25 -29 -31 -29 -18 0 -16 37 2 44 23 8 18
29 -6 23 -17 -5 -20 -1 -17 21 4 35 20 37 51 6 33 -32 36 -15 7 41 -20 40 -24
55 -14 55 3 0 12 -16 20 -36z m-582 11 c-4 -8 -8 -15 -10 -15 -2 0 -4 7 -4 15
0 8 4 15 10 15 5 0 7 -7 4 -15z m496 -14 c0 -6 -4 -13 -10 -16 -5 -3 -10 1
-10 9 0 9 5 16 10 16 6 0 10 -4 10 -9z m-3223 -14 c2 -3 -7 -17 -21 -32 -25
-27 -50 -27 -39 0 3 10 -2 15 -16 15 -12 0 -21 6 -21 14 0 11 11 14 46 11 26
-2 48 -6 51 -8z m403 -2 c0 -8 5 -15 11 -15 5 0 8 -4 5 -9 -4 -5 0 -11 6 -14
10 -3 10 -8 -1 -21 -11 -13 -16 -14 -23 -4 -6 10 -10 7 -14 -9 -9 -31 -26 -29
-52 7 -18 24 -20 30 -7 30 8 0 15 7 15 15 0 9 10 20 23 25 32 13 37 12 37 -5z
m-150 -41 c0 -8 9 -14 20 -14 21 0 27 -14 11 -24 -5 -4 2 -29 15 -56 31 -65
32 -96 1 -58 -12 15 -31 44 -42 65 -11 21 -26 44 -32 51 -19 20 -16 45 3 38
12 -5 15 -2 10 9 -3 9 -2 13 4 10 6 -3 10 -13 10 -21z m2477 -6 c-21 -13 -37
-9 -37 11 0 17 3 18 24 8 16 -8 21 -14 13 -19z m-2807 2 c0 -5 -4 -10 -10 -10
-5 0 -10 5 -10 10 0 6 5 10 10 10 6 0 10 -4 10 -10z m5925 -24 c8 -19 19 -37
25 -41 20 -13 10 -64 -20 -98 -16 -19 -30 -42 -30 -50 0 -20 -19 -32 -31 -20
-5 5 -10 31 -10 59 -1 27 -6 61 -11 77 -8 21 -7 31 4 45 9 9 19 27 22 40 11
33 35 27 51 -12z m-6035 4 c0 -5 -4 -10 -10 -10 -5 0 -10 5 -10 10 0 6 5 10
10 10 6 0 10 -4 10 -10z m80 6 c0 -11 -19 -15 -25 -6 -3 5 1 10 9 10 9 0 16
-2 16 -4z m130 -10 c0 -14 -34 -28 -44 -18 -6 5 24 31 37 32 4 0 7 -6 7 -14z
m170 4 c0 -5 -4 -10 -10 -10 -5 0 -10 5 -10 10 0 6 5 10 10 10 6 0 10 -4 10
-10z m2738 -2 c-6 -18 -28 -21 -28 -4 0 9 7 16 16 16 9 0 14 -5 12 -12z
m-1010 -26 c3 -10 -18 -8 -58 4 -12 4 -12 6 -1 14 16 9 53 -2 59 -18z m3369 6
c-3 -8 -6 -5 -6 6 -1 11 2 17 5 13 3 -3 4 -12 1 -19z m-5092 -62 c14 -19 25
-38 23 -42 -1 -5 12 -38 30 -73 22 -43 29 -68 23 -74 -7 -7 -14 -1 -21 17 -5
15 -10 31 -10 36 0 5 -9 15 -20 23 -25 17 -83 156 -74 177 5 12 8 10 15 -8 5
-13 20 -38 34 -56z m23 33 c2 -23 2 -23 -13 -5 -18 24 -20 39 -2 34 6 -3 13
-15 15 -29z m2556 -10 c-3 -5 -10 -7 -15 -3 -5 3 -7 10 -3 15 3 5 10 7 15 3 5
-3 7 -10 3 -15z m656 2 c5 -11 10 -32 10 -46 0 -20 4 -26 15 -21 8 3 19 -3 25
-13 8 -15 5 -20 -12 -24 -18 -5 -19 -8 -8 -22 19 -23 -1 -42 -27 -25 -17 11
-17 11 0 6 12 -4 17 -2 14 6 -5 17 -35 11 -68 -13 -15 -10 -34 -19 -43 -19 -9
0 -16 -5 -16 -11 0 -6 -9 -8 -22 -4 -16 6 -20 4 -15 -8 4 -11 2 -14 -9 -10
-18 7 -18 17 1 33 12 10 13 15 4 21 -18 11 29 32 73 32 33 0 38 3 38 23 0 16
4 22 14 18 11 -4 13 0 9 15 -6 25 -19 27 -32 4 -8 -14 -12 -15 -25 -4 -26 22
-19 51 17 66 42 19 44 18 57 -4z m-205 -11 c3 -6 -4 -10 -17 -10 -13 0 -29 -5
-35 -11 -6 -6 -17 -9 -25 -6 -8 3 1 11 22 20 42 19 47 20 55 7z m-254 -15 c0
-13 -41 -19 -41 -7 0 11 20 22 33 18 5 -1 8 -6 8 -11z m-3241 -15 c0 -5 -4
-10 -10 -10 -5 0 -10 5 -10 10 0 6 5 10 10 10 6 0 10 -4 10 -10z m350 4 c0
-10 -28 -34 -39 -34 -16 0 -13 11 7 26 18 14 32 18 32 8z m2825 -18 c13 -6 16
-10 7 -13 -20 -8 -42 5 -42 24 0 11 3 14 8 7 4 -6 16 -14 27 -18z m-2457 -8
c-2 -6 -10 -14 -16 -16 -7 -2 -10 2 -6 12 7 18 28 22 22 4z m5012 -32 c0 -8
-4 -18 -10 -21 -5 -3 -10 0 -10 9 0 8 -5 16 -11 18 -5 2 -7 11 -4 20 6 15 9
15 21 3 8 -7 14 -20 14 -29z m-2600 23 c13 -9 13 -10 -1 -6 -9 3 -22 0 -28 -6
-8 -8 -11 -7 -11 6 0 19 18 22 40 6z m470 7 c0 -3 -4 -8 -10 -11 -5 -3 -10 -1
-10 4 0 6 5 11 10 11 6 0 10 -2 10 -4z m-3230 -21 c0 -8 -4 -15 -10 -15 -5 0
-10 7 -10 15 0 8 5 15 10 15 6 0 10 -7 10 -15z m2990 5 c0 -5 -7 -10 -15 -10
-8 0 -15 5 -15 10 0 6 7 10 15 10 8 0 15 -4 15 -10z m-62 -12 c7 -7 12 -21 12
-32 0 -18 -1 -18 -18 -3 -10 10 -24 17 -30 17 -7 0 -12 7 -12 15 0 18 31 20
48 3z m270 0 c-3 -7 -15 -14 -29 -16 -23 -2 -23 -2 -5 13 24 18 39 20 34 3z
m-2134 -13 c11 -8 27 -15 36 -15 9 0 52 -23 96 -51 95 -62 103 -68 76 -66 -11
0 -18 5 -16 9 3 4 -5 9 -18 9 -13 1 -34 3 -48 5 -14 3 -45 6 -70 9 -79 8 -96
11 -108 19 -7 4 -18 4 -25 -1 -7 -6 -63 -6 -142 0 -106 7 -133 12 -147 27 -17
18 -17 19 0 24 33 10 127 9 177 -2 37 -8 52 -7 58 1 6 9 10 9 14 0 2 -7 14
-13 25 -13 14 0 19 6 18 23 -1 12 -2 25 -1 30 2 13 55 7 75 -8z m1818 -26 c31
-29 32 -32 15 -44 -10 -7 -14 -16 -9 -19 5 -3 27 10 47 29 21 19 42 32 47 29
4 -3 6 -10 3 -15 -4 -5 1 -9 9 -9 8 0 17 4 20 9 3 4 17 6 31 3 20 -3 23 -7 14
-18 -6 -8 -20 -14 -30 -14 -11 0 -19 -7 -19 -15 0 -8 9 -15 20 -15 11 0 20 4
20 9 0 16 44 21 59 6 19 -19 7 -45 -22 -45 -30 0 -40 -10 -26 -26 14 -17 3
-48 -13 -38 -6 4 -33 8 -60 9 -38 2 -49 -2 -53 -17 -7 -21 -16 -23 -33 -6 -17
17 -15 38 3 38 12 0 35 28 35 43 0 3 -16 5 -35 4 -19 -1 -35 -5 -35 -9 0 -5
-9 -4 -20 2 -11 6 -20 17 -20 25 0 8 9 19 20 25 22 12 28 42 8 38 -8 -2 -14 9
-16 25 -4 34 1 34 40 -4z m-2643 8 c6 -8 8 -16 5 -20 -10 -9 -34 4 -34 19 0
18 14 18 29 1z m2555 -14 c17 -21 17 -21 -3 -16 -13 3 -21 13 -21 26 0 11 1
18 3 16 1 -2 10 -14 21 -26z m226 17 c0 -5 -4 -10 -10 -10 -5 0 -10 5 -10 10
0 6 5 10 10 10 6 0 10 -4 10 -10z m-2620 -30 c0 -16 -15 -18 -34 -5 -24 18
-12 39 15 25 10 -6 19 -15 19 -20z m2720 23 c-8 -3 -18 -11 -22 -17 -4 -6 -10
-7 -15 -3 -9 10 16 27 37 26 13 -1 13 -1 0 -6z m2801 -16 c11 -24 -2 -77 -20
-77 -5 0 -12 -11 -15 -25 -4 -16 -20 -32 -41 -42 -19 -9 -35 -23 -35 -30 0
-19 -69 -48 -82 -35 -17 17 3 55 58 109 29 29 65 68 79 88 32 41 42 43 56 12z
m-3727 -38 c-3 -5 -10 -7 -15 -3 -5 3 -7 10 -3 15 3 5 10 7 15 3 5 -3 7 -10 3
-15z m1241 1 c3 -5 1 -10 -4 -10 -6 0 -11 5 -11 10 0 6 2 10 4 10 3 0 8 -4 11
-10z m-37 -32 c-4 -31 -23 -33 -26 -3 -1 17 3 25 14 25 10 0 14 -7 12 -22z
m-1272 -12 c8 -8 14 -19 14 -24 0 -6 4 -12 9 -14 13 -4 23 -168 10 -168 -5 0
-15 11 -21 25 -7 16 -19 25 -34 25 -22 0 -44 25 -44 49 0 6 14 11 31 11 26 0
30 3 23 18 -10 24 -18 92 -9 92 3 0 13 -6 21 -14z m141 -2 c-3 -3 -12 -4 -19
-1 -8 3 -5 6 6 6 11 1 17 -2 13 -5z m1090 0 c-3 -3 -12 -4 -19 -1 -8 3 -5 6 6
6 11 1 17 -2 13 -5z m117 -9 c-4 -8 -8 -15 -10 -15 -2 0 -4 7 -4 15 0 8 4 15
10 15 5 0 7 -7 4 -15z m-1236 -23 c3 -17 -2 -22 -17 -22 -22 0 -25 8 -15 35 9
22 28 14 32 -13z m-1738 -44 c0 -5 7 -8 16 -8 8 0 12 -4 9 -10 -3 -5 3 -10 15
-10 19 0 20 -2 6 -15 -8 -8 -22 -15 -30 -15 -19 0 -56 35 -56 53 0 7 -5 18
-11 24 -7 7 -8 20 -5 30 7 16 10 15 32 -12 13 -16 24 -33 24 -37z m280 33 c0
-6 -5 -13 -11 -17 -15 -9 9 -23 41 -25 14 0 19 -3 11 -6 -21 -9 -121 19 -121
33 0 7 6 15 13 17 21 9 67 7 67 -2z m-225 -11 c3 -5 1 -10 -4 -10 -6 0 -11 5
-11 10 0 6 2 10 4 10 3 0 8 -4 11 -10z m75 -5 c17 -21 5 -31 -15 -12 -8 9 -15
18 -15 21 0 11 18 6 30 -9z m735 -3 c-3 -3 -11 0 -18 7 -9 10 -8 11 6 5 10 -3
15 -9 12 -12z m1355 8 c0 -5 -4 -10 -10 -10 -5 0 -10 5 -10 10 0 6 5 10 10 10
6 0 10 -4 10 -10z m-379 -23 c-10 -9 -11 -8 -5 6 3 10 9 15 12 12 3 -3 0 -11
-7 -18z m494 -20 c16 -23 30 -53 30 -67 0 -16 6 -25 17 -25 16 0 58 -40 58
-56 0 -20 -24 -59 -37 -59 -18 0 -16 -20 4 -35 15 -11 15 -15 4 -29 -7 -9 -18
-12 -25 -8 -18 12 -80 32 -98 32 -10 0 -18 6 -18 14 0 18 -16 29 -30 21 -6 -4
-3 -16 6 -31 24 -36 6 -44 -21 -10 -18 23 -31 29 -64 30 -44 1 -56 20 -20 31
21 7 196 -2 210 -11 14 -8 20 15 9 36 -11 21 -54 28 -65 10 -10 -16 -35 8 -28
27 4 10 14 13 34 9 45 -9 65 42 22 58 -20 8 -63 -4 -63 -18 0 -20 -20 19 -20
40 0 25 36 39 44 18 8 -21 26 -17 26 6 0 10 -7 23 -16 28 -15 9 -12 33 4 32 4
-1 20 -20 37 -43z m-2465 -18 c0 -16 -19 -9 -34 13 -21 30 -7 47 16 19 10 -13
18 -27 18 -32z m527 45 c-3 -3 -12 -4 -19 -1 -8 3 -5 6 6 6 11 1 17 -2 13 -5z
m1549 -21 c-7 -7 -26 7 -26 19 0 6 6 6 15 -2 9 -7 13 -15 11 -17z m758 -4 c-8
-14 -24 -10 -24 6 0 9 6 12 15 9 8 -4 12 -10 9 -15z m-2248 0 c4 -8 9 -8 17 0
6 6 27 11 47 11 l35 -1 -32 -14 c-43 -19 -186 -28 -180 -12 3 10 34 18 94 26
6 0 15 -4 19 -10z m2532 -10 c19 -30 8 -34 -12 -4 -9 14 -13 25 -9 25 5 0 14
-9 21 -21z m-2738 1 c0 -5 -6 -10 -14 -10 -8 0 -18 5 -21 10 -3 6 3 10 14 10
12 0 21 -4 21 -10z m1937 -9 c12 -10 24 -30 27 -43 2 -14 10 -34 17 -45 17
-29 4 -57 -23 -50 -12 4 -28 2 -34 -4 -9 -8 -16 -5 -26 10 -18 30 -26 26 -38
-20 -10 -35 -9 -44 6 -60 24 -26 14 -31 -15 -8 -19 16 -23 26 -18 53 4 26 1
39 -14 52 -18 16 -18 19 -3 35 9 10 13 22 10 28 -10 16 14 24 31 9 11 -9 14
-9 10 -1 -9 14 20 63 37 63 6 -1 21 -9 33 -19z m-2300 -4 c-3 -7 3 -19 14 -25
10 -7 16 -18 13 -26 -6 -16 23 -49 37 -41 5 4 9 1 9 -4 0 -6 -5 -11 -11 -11
-6 0 -9 -7 -5 -15 6 -16 -3 -19 -19 -7 -17 12 -36 52 -30 62 4 6 2 10 -3 10
-14 0 -23 30 -17 51 4 11 9 19 12 19 3 0 3 -6 0 -13z m2741 -12 c23 -26 28
-45 13 -45 -5 0 -11 9 -14 20 -3 11 -12 20 -21 20 -9 0 -16 7 -16 15 0 22 13
18 38 -10z m-2099 -9 c-11 -9 -69 -14 -69 -6 0 5 15 10 33 12 32 3 44 1 36 -6z
m51 -1 c0 -8 5 -15 11 -15 5 0 16 -15 24 -34 8 -19 19 -37 25 -41 13 -8 13
-25 0 -25 -6 0 -13 8 -17 18 -11 32 -25 43 -38 32 -9 -7 -15 -7 -19 -1 -4 5
-2 12 4 16 15 10 12 38 -4 32 -10 -4 -12 0 -9 14 6 22 23 26 23 4z m1980 1 c0
-8 -4 -17 -9 -20 -10 -7 -23 19 -14 28 11 11 23 6 23 -8z m-1852 -35 c-4 -18
-36 -22 -56 -8 -9 8 -9 12 5 22 22 16 55 7 51 -14z m1232 19 c0 -5 -7 -10 -15
-10 -8 0 -15 5 -15 10 0 6 7 10 15 10 8 0 15 -4 15 -10z m-1900 -9 c0 -5 -9
-7 -20 -4 -11 3 -20 7 -20 9 0 2 9 4 20 4 11 0 20 -4 20 -9z m2477 -23 c-3 -7
-5 -2 -5 12 0 14 2 19 5 13 2 -7 2 -19 0 -25z m-2657 18 c0 -11 -19 -15 -25
-6 -3 5 1 10 9 10 9 0 16 -2 16 -4z m220 -11 c0 -8 -4 -15 -9 -15 -5 0 -24 -2
-42 -6 l-34 -5 35 20 c43 24 50 25 50 6z m423 -14 c-5 -3 -12 -14 -16 -23 -3
-10 -16 -18 -27 -18 -18 0 -20 4 -14 23 11 38 24 48 46 36 12 -6 16 -14 11
-18z m-523 9 c0 -12 -8 -12 -35 0 -18 8 -17 9 8 9 15 1 27 -3 27 -9z m-150
-47 c0 -17 17 -17 24 0 3 6 5 3 3 -7 -3 -29 -25 -31 -33 -2 -3 13 -12 27 -21
30 -8 3 -11 11 -7 17 8 14 34 -16 34 -38z m390 37 c0 -5 -4 -10 -10 -10 -5 0
-10 5 -10 10 0 6 5 10 10 10 6 0 10 -4 10 -10z m150 -31 c0 -6 -4 -7 -10 -4
-5 3 -10 11 -10 16 0 6 5 7 10 4 6 -3 10 -11 10 -16z m55 11 c3 -5 -1 -10 -9
-10 -8 0 -18 5 -21 10 -3 6 1 10 9 10 8 0 18 -4 21 -10z m5051 -40 c3 0 3 4 0
9 -8 13 21 34 38 28 8 -3 20 -15 26 -26 9 -18 7 -23 -15 -33 -14 -6 -25 -17
-25 -24 0 -15 -31 -34 -54 -34 -9 0 -35 -13 -58 -30 -22 -16 -48 -30 -57 -30
-9 0 -27 -12 -40 -26 -36 -38 -55 -28 -59 31 -3 41 0 52 20 67 13 10 30 18 40
18 9 0 31 15 50 33 19 17 45 40 58 50 24 17 25 16 48 -8 12 -14 25 -25 28 -25z
m-3806 18 c0 -7 7 -26 15 -42 19 -36 11 -74 -8 -41 -6 11 -12 25 -12 30 0 6
-9 10 -20 11 -40 2 -45 4 -45 19 0 18 21 20 38 3 9 -9 12 -7 12 10 0 12 5 22
10 22 6 0 10 -6 10 -12z m-835 -8 c3 -5 -3 -10 -15 -10 -12 0 -18 5 -15 10 3
6 10 10 15 10 5 0 12 -4 15 -10z m2221 -27 c-10 -10 -19 5 -10 18 6 11 8 11
12 0 2 -7 1 -15 -2 -18z m-1286 -2 c0 -5 3 -16 6 -25 4 -10 1 -16 -9 -16 -9 0
-14 10 -14 25 0 14 3 25 8 25 5 0 9 -4 9 -9z m90 -7 c0 -8 -4 -12 -10 -9 -5 3
-10 10 -10 16 0 5 5 9 10 9 6 0 10 -7 10 -16z m131 6 c10 0 19 -4 19 -10 0
-14 -63 -5 -68 10 -3 9 1 11 12 7 10 -4 26 -7 37 -7z m509 -59 c0 -6 -4 -11
-10 -11 -12 0 -30 33 -30 56 0 13 4 11 20 -9 11 -14 20 -30 20 -36z m340 28
c0 -11 -4 -17 -10 -14 -5 3 -10 13 -10 21 0 8 5 14 10 14 6 0 10 -9 10 -21z
m-1045 -35 c19 -15 19 -16 2 -29 -25 -18 -45 -9 -43 21 1 28 13 30 41 8z m-75
-36 c0 -4 -9 -12 -19 -18 -16 -8 -21 -6 -26 10 -9 29 2 42 25 27 11 -6 20 -15
20 -19z m794 -4 c9 -24 7 -34 -8 -34 -8 0 -17 7 -20 16 -3 8 -10 12 -16 9 -5
-3 -10 -2 -10 4 0 8 14 15 41 20 4 0 10 -6 13 -15z m136 6 c0 -5 -5 -10 -11
-10 -5 0 -7 5 -4 10 3 6 8 10 11 10 2 0 4 -4 4 -10z m-835 -68 c-21 -5 -19
-17 8 -35 21 -15 19 -16 -40 -16 -36 -1 -63 3 -63 9 0 6 16 10 35 10 19 0 35
5 35 10 0 6 -4 10 -9 10 -14 0 -19 35 -8 55 9 17 12 16 33 -11 19 -23 21 -30
9 -32z m188 47 l21 -12 -24 -9 c-26 -9 -47 3 -36 21 9 14 12 14 39 0z m-108
-9 c3 -5 1 -10 -4 -10 -6 0 -11 5 -11 10 0 6 2 10 4 10 3 0 8 -4 11 -10z m228
-14 c6 -8 10 -8 14 2 2 6 19 12 36 11 18 0 26 -3 20 -6 -7 -2 -13 -11 -13 -18
0 -7 -15 -15 -34 -17 -24 -3 -32 0 -29 9 3 7 1 13 -4 13 -5 0 -18 7 -29 16
-18 14 -18 15 6 8 14 -4 29 -12 33 -18z m947 4 c-30 -23 -40 -25 -40 -6 0 16
15 24 45 25 18 1 18 -1 -5 -19z m-1333 -30 c2 0 3 -4 3 -9 0 -20 -29 -18 -50
4 l-23 24 34 -9 c19 -6 35 -10 36 -10z m183 -1 c0 -5 -9 -9 -20 -9 -22 0 -27
16 -7 23 15 5 27 -1 27 -14z m360 -4 c0 -8 -2 -15 -4 -15 -2 0 -6 7 -10 15 -3
8 -1 15 4 15 6 0 10 -7 10 -15z m410 0 c0 -9 -6 -12 -16 -8 -13 5 -13 7 -2 14
17 11 18 11 18 -6z m2040 0 c0 -8 -4 -15 -9 -15 -13 0 -22 16 -14 24 11 11 23
6 23 -9z m-2515 -25 c-3 -5 -3 -15 1 -22 10 -16 14 -58 6 -58 -10 0 -48 43
-55 62 -4 11 0 18 11 21 31 8 43 7 37 -3z m315 -5 c0 -8 -9 -15 -19 -15 -29 0
-35 18 -9 23 13 2 24 5 26 6 1 0 2 -6 2 -14z m397 -7 c-3 -8 -6 -5 -6 6 -1 11
2 17 5 13 3 -3 4 -12 1 -19z m-1020 6 c-3 -3 -12 -4 -19 -1 -8 3 -5 6 6 6 11
1 17 -2 13 -5z m153 -5 c0 -5 -18 -9 -40 -9 -22 0 -40 4 -40 9 0 6 18 9 40 9
22 0 40 -4 40 -9z m70 1 c12 -8 11 -10 -7 -10 -12 0 -25 5 -28 10 -8 13 15 13
35 0z m450 -6 c0 -9 -5 -14 -12 -12 -18 6 -21 28 -4 28 9 0 16 -7 16 -16z
m600 12 c0 -3 -4 -8 -10 -11 -5 -3 -10 -1 -10 4 0 6 5 11 10 11 6 0 10 -2 10
-4z m-3850 -10 c0 -3 -4 -8 -10 -11 -5 -3 -10 -1 -10 4 0 6 5 11 10 11 6 0 10
-2 10 -4z m2454 -25 c35 2 47 -1 41 -10 -6 -11 -97 -7 -114 4 -22 13 0 24 26
14 15 -5 36 -9 47 -8z m566 -1 c24 -24 26 -50 5 -50 -8 0 -15 5 -15 10 0 6
-11 16 -25 22 -19 9 -22 14 -14 25 15 18 26 16 49 -7z m290 -10 c0 -4 -11 -7
-25 -6 -28 1 -31 6 -13 24 12 12 38 -1 38 -18z m482 8 c-6 -6 -15 -8 -19 -4
-4 4 -1 11 7 16 19 12 27 3 12 -12z m-364 -15 c2 -8 -5 -13 -17 -13 -12 0 -21
6 -21 16 0 18 31 15 38 -3z m-758 3 c0 -3 -4 -8 -10 -11 -5 -3 -10 -1 -10 4 0
6 5 11 10 11 6 0 10 -2 10 -4z m141 -11 c1 -17 -18 -17 -25 0 -4 11 -1 15 10
13 8 -2 15 -7 15 -13z m-207 -10 c4 -10 -1 -15 -14 -15 -20 0 -26 11 -13 23
10 11 20 8 27 -8z m616 6 c0 -5 8 -12 18 -14 13 -4 13 -5 -4 -6 -12 0 -27 6
-34 14 -10 12 -10 15 4 15 9 0 16 -4 16 -9z m-710 -34 c17 -30 10 -42 -20 -32
-15 5 -20 13 -17 26 4 13 0 19 -11 19 -15 0 -15 2 -2 10 21 13 32 8 50 -23z
m95 -3 c20 5 25 3 25 -14 0 -11 -5 -20 -11 -20 -6 0 -8 -9 -4 -20 7 -21 5 -23
-18 -14 -9 3 -13 13 -10 25 4 15 0 22 -16 26 -11 3 -21 12 -21 20 0 13 3 13
15 3 8 -7 25 -10 40 -6z m1075 6 c0 -5 -10 -10 -22 -9 -22 0 -22 1 -3 9 11 5
21 9 23 9 1 1 2 -3 2 -9z m-848 -28 c9 -9 9 -15 0 -24 -9 -9 -20 -9 -47 1 -22
8 -51 10 -77 6 -29 -5 -43 -3 -49 6 -4 7 -6 16 -4 20 7 11 165 3 177 -9z m772
-12 c-10 -4 -23 -5 -28 -2 -5 3 -1 9 10 12 10 4 23 5 28 2 5 -3 1 -9 -10 -12z
m-574 -11 c0 -11 -4 -17 -10 -14 -5 3 -10 13 -10 21 0 8 5 14 10 14 6 0 10 -9
10 -21z m-83 -11 c-3 -8 -6 -5 -6 6 -1 11 2 17 5 13 3 -3 4 -12 1 -19z m-422
2 c3 -5 1 -10 -4 -10 -6 0 -11 5 -11 10 0 6 2 10 4 10 3 0 8 -4 11 -10z m1192
4 c-3 -3 -12 -4 -19 -1 -8 3 -5 6 6 6 11 1 17 -2 13 -5z"/>
<path d="M1840 4590 c0 -14 12 -55 27 -91 31 -75 83 -123 131 -117 23 2 27 8
27 33 0 27 -4 30 -43 38 -46 9 -77 40 -119 119 -20 36 -23 39 -23 18z"/>
<path d="M4506 4481 c-13 -20 95 -83 113 -65 10 10 -16 39 -50 56 -39 19 -55
22 -63 9z"/>
<path d="M5875 820 c3 -5 10 -10 16 -10 5 0 9 5 9 10 0 6 -7 10 -16 10 -8 0
-12 -4 -9 -10z"/>
<path d="M5864 659 c-3 -6 -1 -16 5 -22 8 -8 11 -5 11 11 0 24 -5 28 -16 11z"/>
<path d="M3342 1429 c2 -6 7 -10 11 -10 4 1 15 1 25 1 14 0 15 2 2 10 -20 13
-43 13 -38 -1z"/>
<path d="M3265 1350 c3 -5 8 -10 11 -10 2 0 4 5 4 10 0 6 -5 10 -11 10 -5 0
-7 -4 -4 -10z"/>
<path d="M3200 1326 c0 -9 7 -16 16 -16 17 0 14 22 -4 28 -7 2 -12 -3 -12 -12z"/>
<path d="M3300 1329 c0 -6 9 -13 19 -16 11 -3 21 -13 24 -23 4 -14 11 -17 28
-13 18 5 21 3 16 -11 -5 -13 -2 -17 10 -14 23 4 27 24 6 32 -39 15 -63 31 -63
43 0 7 -9 13 -20 13 -11 0 -20 -5 -20 -11z"/>
<path d="M3432 1300 c14 -22 24 -19 15 5 -4 8 -11 15 -17 15 -6 0 -6 -7 2 -20z"/>
<path d="M3470 1280 c0 -5 5 -10 10 -10 6 0 10 5 10 10 0 6 -4 10 -10 10 -5 0
-10 -4 -10 -10z"/>
<path d="M3352 1200 c0 -14 2 -19 5 -12 2 6 2 18 0 25 -3 6 -5 1 -5 -13z"/>
<path d="M1040 1150 c0 -5 5 -10 10 -10 6 0 10 5 10 10 0 6 -4 10 -10 10 -5 0
-10 -4 -10 -10z"/>
<path d="M720 1140 c0 -5 6 -10 14 -10 8 0 18 5 21 10 3 6 -3 10 -14 10 -12 0
-21 -4 -21 -10z"/>
<path d="M956 1105 c-3 -8 -1 -15 4 -15 13 0 22 18 11 24 -5 3 -11 -1 -15 -9z"/>
<path d="M1064 1096 c-6 -15 62 -85 82 -86 10 0 23 29 24 52 0 6 -80 48 -93
48 -4 0 -10 -6 -13 -14z"/>
<path d="M1230 1026 c0 -19 24 -37 55 -40 21 -3 23 -1 13 11 -8 11 -13 12 -16
4 -5 -16 -32 6 -32 25 0 8 -4 14 -10 14 -5 0 -10 -6 -10 -14z"/>
<path d="M1186 995 c-3 -8 -1 -15 4 -15 13 0 22 18 11 24 -5 3 -11 -1 -15 -9z"/>
<path d="M1343 996 c4 -10 7 -20 7 -22 0 -2 4 -4 9 -4 14 0 6 33 -9 38 -9 3
-11 -1 -7 -12z"/>
<path d="M678 983 c7 -3 16 -2 19 1 4 3 -2 6 -13 5 -11 0 -14 -3 -6 -6z"/>
<path d="M3380 680 c0 -5 0 -13 1 -16 0 -4 -5 -10 -12 -15 -23 -14 -3 -20 25
-8 31 15 32 20 6 37 -12 7 -20 8 -20 2z"/>
<path d="M3468 673 c7 -3 16 -2 19 1 4 3 -2 6 -13 5 -11 0 -14 -3 -6 -6z"/>
<path d="M3060 520 c-11 -21 -4 -25 24 -14 8 3 12 12 9 20 -7 20 -20 17 -33
-6z"/>
<path d="M200 1840 c0 -7 8 -10 19 -7 13 3 22 -1 25 -12 3 -11 4 -9 3 4 -2 22
-47 35 -47 15z"/>
<path d="M2457 1834 c-23 -13 -26 -18 -16 -30 10 -13 15 -12 36 7 39 38 29 50
-20 23z"/>
<path d="M2306 1833 c-11 -11 -6 -23 9 -23 8 0 15 4 15 9 0 13 -16 22 -24 14z"/>
<path d="M2280 1791 c0 -5 5 -13 10 -16 6 -3 10 -2 10 4 0 5 -4 13 -10 16 -5
3 -10 2 -10 -4z"/>
<path d="M1111 1772 c-21 -7 -11 -22 15 -22 14 0 47 -7 75 -16 28 -9 56 -13
66 -9 17 7 16 8 -2 13 -11 2 -28 11 -37 20 -17 14 -90 23 -117 14z"/>
<path d="M2334 1749 c-10 -17 13 -36 27 -22 12 12 4 33 -11 33 -5 0 -12 -5
-16 -11z"/>
<path d="M1715 1711 c-7 -12 12 -24 25 -16 11 7 4 25 -10 25 -5 0 -11 -4 -15
-9z"/>
<path d="M270 1674 c0 -8 5 -12 10 -9 6 4 8 11 5 16 -9 14 -15 11 -15 -7z"/>
<path d="M2400 1665 c0 -8 7 -15 15 -15 8 0 15 7 15 15 0 8 -7 15 -15 15 -8 0
-15 -7 -15 -15z"/>
<path d="M745 1640 c-3 -5 -1 -10 4 -10 6 0 11 5 11 10 0 6 -2 10 -4 10 -3 0
-8 -4 -11 -10z"/>
<path d="M80 1613 c0 -5 -18 -17 -40 -27 -26 -11 -40 -24 -40 -36 0 -17 1 -17
36 1 42 21 70 54 54 64 -5 3 -10 2 -10 -2z"/>
<path d="M182 1579 c2 -6 8 -10 13 -10 5 0 11 4 13 10 2 6 -4 11 -13 11 -9 0
-15 -5 -13 -11z"/>
<path d="M1780 1550 c0 -19 7 -33 20 -40 11 -6 20 -16 20 -23 0 -7 9 -23 20
-35 11 -12 20 -26 20 -31 0 -17 40 -33 67 -26 20 5 23 9 13 20 -6 8 -9 18 -6
23 9 15 -25 37 -52 33 -20 -2 -24 1 -18 14 3 9 6 19 6 21 0 2 7 4 15 4 21 0
19 23 -5 51 -16 20 -19 21 -20 7 0 -10 -5 -18 -11 -18 -6 0 -8 -7 -5 -16 5
-14 4 -15 -9 -4 -9 7 -13 15 -10 18 8 8 -16 32 -31 32 -9 0 -14 -11 -14 -30z"/>
<path d="M359 1563 c-4 -22 5 -49 17 -56 8 -4 14 -14 14 -21 0 -19 37 -50 44
-37 4 5 1 13 -5 17 -6 4 -9 19 -5 36 7 36 -12 68 -41 68 -13 0 -24 -3 -24 -7z"/>
<path d="M185 1531 c-7 -12 12 -24 25 -16 11 7 4 25 -10 25 -5 0 -11 -4 -15
-9z"/>
<path d="M2075 1520 c3 -5 8 -10 11 -10 2 0 4 5 4 10 0 6 -5 10 -11 10 -5 0
-7 -4 -4 -10z"/>
<path d="M595 1466 c-18 -13 -17 -14 11 -29 25 -13 32 -13 49 -1 10 8 28 11
39 8 16 -5 18 -4 9 6 -6 7 -25 13 -41 15 -16 1 -34 5 -39 8 -6 4 -18 0 -28 -7z"/>
<path d="M485 1460 c-11 -18 5 -30 41 -30 40 0 45 16 8 30 -32 13 -41 13 -49
0z"/>
<path d="M1942 1339 c2 -6 8 -10 13 -10 5 0 11 4 13 10 2 6 -4 11 -13 11 -9 0
-15 -5 -13 -11z"/>
<path d="M1996 1272 c-3 -6 1 -13 10 -16 23 -9 28 -2 10 13 -8 7 -17 8 -20 3z"/>
<path d="M2590 1260 c0 -5 7 -10 16 -10 8 0 12 5 9 10 -3 6 -10 10 -16 10 -5
0 -9 -4 -9 -10z"/>
<path d="M1676 1215 c4 -8 8 -15 10 -15 2 0 4 7 4 15 0 8 -4 15 -10 15 -5 0
-7 -7 -4 -15z"/>
<path d="M2657 1203 c-6 -11 39 -74 47 -66 12 12 6 46 -11 59 -21 15 -30 17
-36 7z"/>
<path d="M2397 1155 c-4 -8 -2 -17 3 -20 6 -4 10 3 10 14 0 25 -6 27 -13 6z"/>
<path d="M2332 1130 c-15 -24 -16 -60 -1 -60 5 0 8 4 4 9 -3 6 2 14 10 18 11
7 13 15 8 31 -8 21 -9 21 -21 2z"/>
<path d="M2710 1091 c0 -10 19 -25 25 -20 1 2 -3 10 -11 17 -8 7 -14 8 -14 3z"/>
<path d="M2352 955 c-3 -36 9 -44 38 -25 13 9 13 12 -2 21 -10 5 -18 17 -18
24 0 31 -16 13 -18 -20z"/>
<path d="M2445 960 c4 -6 11 -8 16 -5 14 9 11 15 -7 15 -8 0 -12 -5 -9 -10z"/>
<path d="M2509 956 c15 -18 10 -20 -51 -17 -21 2 -38 -2 -38 -7 0 -15 29 -19
95 -13 51 5 60 9 60 26 0 16 -8 21 -39 23 -35 3 -38 2 -27 -12z"/>
<path d="M2553 903 c-20 -7 -15 -23 7 -23 11 0 20 4 20 9 0 13 -12 19 -27 14z"/>
<path d="M2470 864 c0 -8 5 -12 10 -9 6 4 8 11 5 16 -9 14 -15 11 -15 -7z"/>
<path d="M2625 830 c3 -6 20 -10 37 -10 38 0 34 5 -10 13 -21 4 -31 3 -27 -3z"/>
<path d="M3065 700 c-7 -12 2 -30 16 -30 12 0 12 27 0 35 -5 3 -12 1 -16 -5z"/>
<path d="M5075 500 c4 -6 11 -8 16 -5 14 9 11 15 -7 15 -8 0 -12 -5 -9 -10z"/>
<path d="M5140 461 c0 -6 5 -13 10 -16 6 -3 10 1 10 9 0 9 -4 16 -10 16 -5 0
-10 -4 -10 -9z"/>
<path d="M5220 419 c0 -5 5 -7 10 -4 6 3 10 8 10 11 0 2 -4 4 -10 4 -5 0 -10
-5 -10 -11z"/>
<path d="M5203 375 c-3 -9 -3 -18 0 -21 9 -9 27 6 27 22 0 19 -19 18 -27 -1z"/>
<path d="M5220 322 c0 -5 7 -16 16 -23 14 -12 16 -11 13 5 -4 20 -29 35 -29
18z"/>
<path d="M4965 310 c-3 -5 2 -21 11 -35 17 -26 17 -26 31 -5 8 12 12 27 9 35
-6 17 -42 20 -51 5z"/>
<path d="M5180 210 c0 -11 5 -20 10 -20 6 0 10 9 10 20 0 11 -4 20 -10 20 -5
0 -10 -9 -10 -20z"/>
<path d="M4986 161 c-4 -5 -2 -12 3 -15 5 -4 12 -2 15 3 4 5 2 12 -3 15 -5 4
-12 2 -15 -3z"/>
<path d="M4601 122 c-12 -23 -14 -65 -5 -99 4 -16 14 -23 31 -23 22 0 24 3 18
30 -4 18 -2 36 4 44 8 10 5 20 -13 41 -23 27 -24 27 -35 7z"/>
<path d="M4885 100 c3 -5 13 -10 21 -10 8 0 14 5 14 10 0 6 -9 10 -21 10 -11
0 -17 -4 -14 -10z"/>
<path d="M5226 72 c-3 -5 -1 -14 3 -21 5 -7 6 -22 4 -32 -4 -13 0 -19 11 -19
9 0 16 7 16 15 0 8 5 15 10 15 13 0 -10 38 -27 44 -7 3 -14 2 -17 -2z"/>
</g>
</svg>
